HIERARCHY
ROOT ui
{
	 OFFSET 0 0 0
	 CHANNELS 3 XPosition YPosition Z Position
	 EndSite
	 {
	 OFFSET 0 -1 0
	 }
}
ROOT li
{
	 OFFSET 0 0 0
	 CHANNELS 3 XPosition YPosition Z Position
	 EndSite
	 {
	 OFFSET 0 -1 0
	 }
}
ROOT ul
{
	 OFFSET 0 0 0
	 CHANNELS 3 XPosition YPosition Z Position
	 EndSite
	 {
	 OFFSET 0 -1 0
	 }
}
ROOT ll
{
	 OFFSET 0 0 0
	 CHANNELS 3 XPosition YPosition Z Position
	 EndSite
	 {
	 OFFSET 0 -1 0
	 }
}
ROOT tt
{
	 OFFSET 0 0 0
	 CHANNELS 3 XPosition YPosition Z Position
	 EndSite
	 {
	 OFFSET 0 -1 0
	 }
}
ROOT tb
{
	 OFFSET 0 0 0
	 CHANNELS 3 XPosition YPosition Z Position
	 EndSite
	 {
	 OFFSET 0 -1 0
	 }
}
ROOT td
{
	 OFFSET 0 0 0
	 CHANNELS 3 XPosition YPosition Z Position
	 EndSite
	 {
	 OFFSET 0 -1 0
	 }
}
ROOT v
{
	 OFFSET 0 0 0
	 CHANNELS 3 XPosition YPosition Z Position
	 EndSite
	 {
	 OFFSET 0 -1 0
	 }
}
ROOT bn
{
	 OFFSET 0 0 0
	 CHANNELS 3 XPosition YPosition Z Position
	 EndSite
	 {
	 OFFSET 0 -1 0
	 }
}
MOTION
Frames: 29
Frame Time: 0.002
-0.0036436939239501954	0.0018514729738235475	0		0.5202758178710938	-2.492046142578125	0		-0.7820999755859375	0.31500128173828124	0		-0.57621826171875	-2.454181640625	0		1.375244384765625	-0.9002692260742188	0		3.182290771484375	-0.36190792846679687	0		4.692865234375	-0.17823548889160157	0		5.61018115234375	0.16220704650878906	0		-0.03657167053222656	5.9694267578125	0		
2.7900901436805724E-4	0.0050495929718017574	0		0.54849560546875	-2.519094482421875	0		-0.7823524780273438	0.3140107116699219	0		-0.528694091796875	-2.463937255859375	0		1.3753983154296876	-0.9005380859375	0		3.192996337890625	-0.3767655029296875	0		4.681796875	-0.17619921875	0		5.61512109375	0.17126461791992187	0		-0.15787460327148437	5.96080224609375	0		
1.0244099795818328E-4	0.0043475117683410645	0		0.52626953125	-2.512217041015625	0		-0.8485501098632813	0.31820394897460935	0		-0.5599891357421874	-2.46025439453125	0		1.3806214599609374	-0.89487890625	0		3.1954150390625	-0.3494632873535156	0		4.69678173828125	-0.16963414001464844	0		5.61901123046875	0.1793264617919922	0		-0.17792481994628906	5.964361328125	0		
0.002953574895858765	0.006626251220703125	0		0.5272946166992187	-2.487723388671875	0		-0.7829274291992188	0.31213568115234375	0		-0.5332755126953125	-2.453547607421875	0		1.380706298828125	-0.8951112670898438	0		3.196949951171875	-0.3711522521972656	0		4.69663671875	-0.16881681823730468	0		5.61463623046875	0.1735052490234375	0		-0.028742170333862303	5.9780458984375	0		
-3.1640499830245974E-4	0.00304607892036438	0		0.4978050842285156	-2.489689453125	0		-0.78817236328125	0.3153487548828125	0		-0.5249154052734375	-2.46447509765625	0		1.37566064453125	-0.9012376098632813	0		3.222942138671875	-0.36524874877929686	0		4.70335107421875	-0.17513491821289062	0		5.614365234375	0.17458358764648438	0		-0.03078110694885254	5.97740478515625	0		
-0.004616368770599366	-0.0014782110452651977	0		0.5512067260742187	-2.49601123046875	0		-0.7884976806640625	0.3145283203125	0		-0.5363302612304688	-2.459021240234375	0		1.3756895751953124	-0.9014278564453125	0		3.1908359375	-0.3633719482421875	0		4.692169921875	-0.1741741485595703	0		5.60894921875	0.16771151733398437	0		-0.032738815307617186	5.9778046875	0		
-0.01064864158630371	0.011069328308105468	0		0.5273291625976563	-2.516012939453125	0		-0.7838950805664062	0.3096827087402344	0		-0.5358959350585938	-2.45971630859375	0		1.3966746826171874	-0.9029362182617188	0		3.1817412109375	-0.3598917236328125	0		4.69784228515625	-0.18152169799804688	0		5.613787109375	0.17663131713867186	0		-0.16700758361816406	5.95539794921875	0		
0.02493245506286621	-9.463000111281871E-6	0		0.5655819702148438	-2.525984130859375	0		-0.780163330078125	0.3129134521484375	0		-0.5534906005859375	-2.459068603515625	0		1.383835205078125	-0.8918683471679687	0		3.21125927734375	-0.3800445861816406	0		4.69560595703125	-0.18277130126953126	0		5.6176015625	0.1845222930908203	0		-0.15266281127929687	5.963595703125	0		
0.001744979977607727	0.003903955936431885	0		0.5331954956054688	-2.509783935546875	0		-0.7804923706054687	0.31227023315429686	0		-0.4930938415527344	-2.45660302734375	0		1.404779052734375	-0.8933191528320312	0		3.2195537109375	-0.35085247802734376	0		4.7115205078125	-0.17434384155273439	0		5.61730322265625	0.18542579650878907	0		-0.155342041015625	5.96411962890625	0		
0.014567506790161134	0.008293672561645508	0		0.5547496948242188	-2.49440087890625	0		-0.789813720703125	0.31182754516601563	0		-0.565773193359375	-2.4549873046875	0		1.3786358642578125	-0.8990086669921875	0		3.1800888671875	-0.368932861328125	0		4.7023388671875	-0.17155943298339843	0		5.612900390625	0.17933601379394531	0		-0.17208114624023438	5.9539111328125	0		
-0.0018068339824676514	1.8007099628448487E-4	0		0.5000471801757812	-2.491806884765625	0		-0.790129638671875	0.31130252075195314	0		-0.49660568237304686	-2.4615234375	0		1.396505126953125	-0.9033638305664062	0		3.19183447265625	-0.3738260192871094	0		4.69803076171875	-0.17689454650878905	0		5.60748974609375	0.1722034454345703	0		-0.055385612487792966	5.9637021484375	0		
-0.006119478225708008	-0.004079004764556885	0		0.5190028686523438	-2.509318359375	0		-0.785501708984375	0.3067591552734375	0		-0.5893853759765625	-2.460528076171875	0		1.37848486328125	-0.8991492919921875	0		3.201605712890625	-0.37669766235351565	0		4.69678125	-0.17831698608398439	0		5.60720458984375	0.1729363708496094	0		-0.05675766754150391	5.9633720703125	0		
-0.012178244590759278	0.008728945732116699	0		0.5321144409179688	-2.51370361328125	0		-0.7817493286132813	0.3102855224609375	0		-0.516243896484375	-2.463000732421875	0		1.380427978515625	-0.8962239379882813	0		3.215742919921875	-0.35464337158203124	0		4.69478173828125	-0.16276747131347657	0		5.61614404296875	0.18847636413574217	0		-0.1761954345703125	5.95285107421875	0		
4.725559949874878E-4	0.0022930541038513183	0		0.5592099609375	-2.516263671875	0		-0.782054443359375	0.3099235534667969	0		-0.583012451171875	-2.455329833984375	0		1.383366943359375	-0.892299072265625	0		3.201215087890625	-0.3761821594238281	0		4.7063251953125	-0.17746543884277344	0		5.61175439453125	0.18215597534179687	0		-0.17736619567871093	5.95258203125	0		
-0.002830596923828125	-8.708990216255188E-4	0		0.5286361694335937	-2.49294287109375	0		-0.7864142456054688	0.3056673278808594	0		-0.4919748229980469	-2.458953857421875	0		1.401154541015625	-0.8975819702148438	0		3.2212109375	-0.3622477722167969	0		4.70609033203125	-0.17702995300292967	0		5.61147021484375	0.18271533203125	0		-0.19358489990234376	5.94257080078125	0		
-0.0030890300273895264	-0.0010503400564193725	0		0.5286795043945313	-2.49305810546875	0		-0.7916510009765625	0.30946539306640625	0		-0.5727667846679687	-2.44701416015625	0		1.3749346923828125	-0.9022122192382812	0		3.19491162109375	-0.36765753173828125	0		4.70097021484375	-0.16856718444824217	0		5.60607373046875	0.17528944396972657	0		-0.04708357620239258	5.9742236328125	0		
-0.0074013671875	-0.005146636009216309	0		0.5552825317382812	-2.521543212890625	0		-0.7869973754882813	0.30515496826171873	0		-0.5180270385742187	-2.4660224609375	0		1.3778187255859375	-0.8992636108398437	0		3.1847255859375	-0.36532696533203124	0		4.700501953125	-0.18421882629394531	0		5.6109150390625	0.18365943908691407	0		-0.19545127868652343	5.94219287109375	0		
-5.487769842147828E-4	0.001618121027946472	0		0.5422567749023437	-2.52243798828125	0		-0.853209228515625	0.30989578247070315	0		-0.5808660888671875	-2.453300537109375	0		1.3886536865234376	-0.899426513671875	0		3.209337158203125	-0.377521240234375	0		4.700271484375	-0.18391403198242187	0		5.61475	0.19099092102050783	0		-0.1801395721435547	5.94981103515625	0		
-7.844330072402955E-4	0.001502143979072571	0		0.534740966796875	-2.4863994140625	0		-0.78347705078125	0.3087109375	0		-0.5099668273925781	-2.458477294921875	0		1.38563427734375	-0.8893878784179687	0		3.207446533203125	-0.3553503723144531	0		4.71413525390625	-0.17784898376464844	0		5.61861279296875	0.19927281188964843	0		-0.047543148040771484	5.97077880859375	0		
-0.004044703006744385	-0.0015569720268249511	0		0.5046730346679688	-2.488037109375	0		-0.7886593017578125	0.3126243591308594	0		-0.5589069213867187	-2.45091943359375	0		1.400364013671875	-0.8976044921875	0		3.190013916015625	-0.37198291015625	0		4.7018740234375	-0.18144766235351562	0		5.6050556640625	0.1767540283203125	0		-0.19760743713378906	5.9417939453125	0		
0.021744144439697265	-0.0030164990425109862	0		0.5285573120117187	-2.493436767578125	0		-0.7879862060546875	0.3044713439941406	0		-0.5239976806640625	-2.4545400390625	0		1.3771983642578125	-0.8992848510742187	0		3.19391259765625	-0.36693667602539065	0		4.6947763671875	-0.17515354919433593	0		5.60485009765625	0.17700485229492188	0		-0.06585260772705079	5.9628203125	0		
-0.008461302757263183	-0.005676302909851074	0		0.5025672607421875	-2.490126953125	0		-0.7881685180664062	0.304345703125	0		-0.5589888916015625	-2.45115869140625	0		1.3970633544921875	-0.9005783081054688	0		3.227564697265625	-0.3813304748535156	0		4.7015341796875	-0.18108847045898438	0		5.6046748046875	0.1772159423828125	0		-0.19864411926269532	5.941595703125	0		
0.021443321228027345	-0.0031776890754699706	0		0.5591738891601562	-2.516981689453125	0		-0.7842612915039062	0.3081743469238281	0		-0.579025146484375	-2.45198193359375	0		1.3820830078125	-0.8923843994140624	0		3.197843505859375	-0.3528451843261719	0		4.69937939453125	-0.1829271240234375	0		5.61374169921875	0.19226182556152344	0		-0.05159794616699219	5.9724384765625	0		
-0.0016001420021057129	0.0010694099664688111	0		0.5065938415527343	-2.486296142578125	0		-0.7843749389648438	0.3080687255859375	0		-0.552937744140625	-2.44544482421875	0		1.4029991455078126	-0.8937013549804688	0		3.19944677734375	-0.37482437133789065	0		4.70439599609375	-0.1748938751220703	0		5.60953466796875	0.18545762634277344	0		-0.18423759460449218	5.951212890625	0		
0.021272073745727538	-0.003324681043624878	0		0.5575003051757812	-2.4940654296875	0		-0.7844542846679687	0.30797097778320315	0		-0.5899121704101562	-2.44401806640625	0		1.3789183349609375	-0.8963938598632812	0		3.203598388671875	-0.35985311889648436	0		4.6943330078125	-0.17467767333984374	0		5.609458984375	0.18556272888183595	0		-0.0663397216796875	5.9614833984375	0		
-0.004751533031463623	-0.002031797885894775	0		0.5025704345703125	-2.4903544921875	0		-0.7935014038085938	0.3080063171386719	0		-0.5220087280273438	-2.453051513671875	0		1.39684326171875	-0.90068017578125	0		3.2053857421875	-0.37286911010742185	0		4.701212890625	-0.18072640991210936	0		5.60430322265625	0.177704833984375	0		-0.2348912353515625	5.93675830078125	0		
-0.00476706600189209	-0.002099745988845825	0		0.5285576782226562	-2.49377490234375	0		-0.784523681640625	0.3077980041503906	0		-0.5898598022460938	-2.444182373046875	0		1.3789022216796876	-0.8964711303710937	0		3.18756005859375	-0.35962667846679686	0		4.6991728515625	-0.18267720031738283	0		5.60939501953125	0.18567259216308593	0		-0.18481498718261719	5.95098779296875	0		
-0.004763279914855957	-0.002164436101913452	0		0.5462435913085938	-2.519080810546875	0		-0.7845238647460937	0.30772329711914065	0		-0.5409268798828125	-2.451936279296875	0		1.381972900390625	-0.8925602416992188	0		3.220244873046875	-0.38310769653320315	0		4.69917919921875	-0.18268154907226564	0		5.62247900390625	0.19149833679199219	0		-0.18391551208496093	5.9489072265625	0		
0.0242938232421875	3.714179992675781E-4	0		0.5644036865234375	-2.510388427734375	0		-0.7754114379882813	0.31453140258789064	0		-0.5368355102539063	-2.448056396484375	0		1.3850390625	-0.8896524047851563	0		3.201768798828125	-0.3468834228515625	0		4.71019775390625	-0.1828604736328125	0		5.61351025390625	0.19260441589355468	0		-0.03646803665161133	5.98179638671875	0		
